<svg width="249" height="40" viewBox="0 0 249 40" fill="none" xmlns="http://www.w3.org/2000/svg">
<path fill-rule="evenodd" clip-rule="evenodd" d="M145.17 8.5841L145.163 8.58019C146.096 7.56152 147.129 6.47965 148.211 5.43877C146.895 4.79707 145.679 4.06971 144.503 3.36606C141.954 1.84137 139.591 0.428035 136.795 0.238895C134.626 0.104655 132.455 0.463533 130.445 1.28858C130.445 1.28858 129.358 -0.186957 126.011 0.291192C122.664 0.769341 112.354 5.07642 103.568 19.1221C95.6258 31.8192 99.3576 39.0997 105.062 39.0213C111.244 38.9354 117.124 32.062 119.119 26.3952C121.113 20.7283 118.76 19.193 116.952 19.3387C114.954 19.5068 111.423 21.2849 109.481 25.2147C107.538 29.1445 107.538 31.5651 107.538 31.5651C108.332 30.7322 109.196 29.9687 110.12 29.2827C110.951 28.6335 111.867 28.1006 112.843 27.6989C113.071 26.6835 113.411 25.6963 113.855 24.7553C114.558 23.2909 115.671 21.7668 117.045 21.4232C119.836 20.7246 118.499 25.8124 116.448 29.1296C115.346 30.9002 111.435 36.0216 108.076 36.0216C104.718 36.0216 104.076 32.7867 104.782 29.7497C105.488 26.7127 106.47 22.8725 111.379 15.8796C116.287 8.88667 121.595 4.74022 124.67 3.0032C127.826 1.21387 129.111 1.99833 129.111 1.99833C129.111 1.99833 125.081 4.47126 122.787 7.4597C120.598 10.3137 119.287 13.5225 120.303 15.0951C121.274 16.5931 124.685 16.623 128.446 11.199C132.159 5.84221 131.226 2.65579 131.226 2.65579C131.47 2.57631 131.72 2.5139 131.973 2.46901C133.784 2.2262 135.234 2.70809 137.475 3.85863C138.568 4.41993 139.641 5.13887 140.787 5.90675C142.102 6.78812 143.514 7.7342 145.163 8.58019L145.159 8.5841H145.17ZM129.955 3.07044C129.955 3.07044 127.565 4.023 124.785 7.08614C122.006 10.1493 120.385 13.5972 121.584 14.5087C122.044 14.8561 123.104 14.9158 125.032 13.1825C126.809 11.6389 128.204 9.70433 129.107 7.53067C130.28 4.67074 129.995 3.26865 129.959 3.08957C129.957 3.07872 129.955 3.07236 129.955 3.07044Z" fill="white"/>
<path d="M150.013 10.3192L150.012 10.3211C156.541 11.6136 162.26 7.56803 165.301 4.12386C166.411 2.89132 167.365 1.52769 168.144 0.0633241C166.759 1.50507 165.209 2.77893 163.527 3.85863L163.508 3.8549C160.677 5.67037 156.758 7.31775 152.993 6.9554C152.04 7.94158 151.02 9.08092 150.004 10.3174L150.013 10.3192Z" fill="white"/>
<path fill-rule="evenodd" clip-rule="evenodd" d="M152.313 33.5263C151.771 34.393 151.155 36.0553 152.944 35.0205C155.122 33.7616 158.226 29.0437 158.226 29.0437H159.631C158.351 31.0153 156.925 32.8883 155.365 34.647C153.157 37.0937 150.464 39.3164 148.566 39.096C146.351 38.8382 147.046 35.9283 147.046 35.9283C147.046 35.9283 143.863 39.2902 141.678 39.0624C138.715 38.7337 139.619 35.0728 139.619 35.0728C139.619 35.0728 136.257 39.1819 133.986 39.0586C130.407 38.8532 131.308 34.4863 132.301 31.4307C132.836 29.7908 133.329 28.502 133.329 28.502C133.329 28.502 132.974 28.5954 132.208 28.7075C131.808 28.7635 131.087 28.8046 131.087 28.8046C130.266 30.2529 129.371 31.6581 128.405 33.0145C127.214 34.5984 122.152 40.0411 119.163 38.9503C116.407 37.9417 117.318 33.7206 118.924 30.3586C121.267 25.4687 127.856 18.4422 131.655 19.3649C135.596 20.3212 131.745 27.5084 131.745 27.5084C131.745 27.5084 131.745 27.5345 131.786 27.5532C132.035 27.5981 132.291 27.584 132.533 27.5121C133.026 27.4123 133.508 27.2686 133.975 27.0825C133.975 27.0825 137.935 18.7896 142.309 13.3656C146.683 7.94158 155.421 -1.3898 158.846 0.870201C159.683 1.4268 159.302 3.33939 158.174 5.6629C157.665 5.82368 157.149 5.95834 156.627 6.06634C157.253 5.02878 157.726 3.90657 158.032 2.73424C158.547 -0.0674197 152.003 5.83847 147.326 12.1964C144.513 16.0265 142.014 20.0778 139.855 24.3107C140.7 23.7972 141.506 23.2229 142.268 22.5924C144.354 20.8621 146.337 19.0111 148.207 17.0488C150.001 15.2005 151.684 13.2471 153.247 11.199C153.747 11.1754 154.246 11.1243 154.741 11.0458C153.031 13.3645 151.168 15.5659 149.164 17.6353C148.998 17.8004 148.832 17.9669 148.665 18.1343C146.941 19.8606 145.123 21.6809 143.523 23.0294C141.96 24.366 140.312 25.5989 138.588 26.7201C138.588 26.7201 134.479 34.9682 136.721 35.4987C138.028 35.8125 140.613 31.8341 140.613 31.8341C140.613 31.8341 143.975 26.6903 146.015 24.363C148.771 21.2252 151.158 19.4172 153.53 19.3686C154.92 19.3425 155.738 20.8255 155.738 20.8255L156.392 19.8131H160.415C160.415 19.8131 152.903 32.5588 152.301 33.5188L152.313 33.5263ZM154.834 22.2524C154.883 22.1659 154.923 22.0745 154.954 21.9797C154.935 21.8305 154.865 21.6923 154.756 21.5882C154.647 21.4842 154.506 21.4207 154.356 21.4082C153.736 21.3783 152.884 21.4979 150.662 23.9596C148.815 25.9979 147.226 28.2563 145.932 30.6836C144.659 33.0108 144.143 34.7441 144.875 35.1924C145.113 35.3144 145.387 35.3424 145.645 35.2708C146.142 35.1513 146.702 34.6881 147.557 33.6981C147.877 33.3272 148.226 32.8316 148.625 32.2652L148.629 32.2599C148.727 32.1207 148.828 31.9773 148.932 31.8304C150.404 29.8281 154.102 23.5225 154.834 22.2487V22.2524ZM131.726 24.9271C132.1 23.9558 132.57 22.0507 131.588 21.3036C130.531 20.5079 127.852 22.372 127.826 24.292C127.8 26.2121 129.72 27.1348 130.18 27.2581C130.441 27.329 130.531 27.3178 130.658 27.1086C131.064 26.4096 131.421 25.6832 131.726 24.9346V24.9271ZM129.69 28.4945C129.023 28.1863 128.401 27.7892 127.841 27.3141C127.277 26.843 126.805 26.2718 126.448 25.6294C126.417 25.5769 126.386 25.6112 126.353 25.6479C126.346 25.6556 126.339 25.6633 126.332 25.6705L126.331 25.6711C126.289 25.7133 126.122 25.88 124.688 27.979C123.246 30.0896 121.05 34.4378 123.045 35.1811C124.322 35.6556 126.448 33.418 127.613 31.935C128.402 30.9006 129.117 29.8121 129.754 28.6776C129.814 28.5506 129.754 28.5207 129.69 28.4945Z" fill="white"/>
<path d="M107.042 10.1119H103.216L101.054 13.6084H104.879L107.042 10.1119Z" fill="white"/>
<path fill-rule="evenodd" clip-rule="evenodd" d="M98.0614 19.6787H99.451C99.451 19.6787 92.4282 29.8281 88.4573 29.3649C86.2421 29.1072 86.8996 26.3765 86.8996 26.3765C86.8996 26.3765 83.7804 30.0186 80.9227 29.2902C78.3303 28.6253 80.0038 24.3182 80.0038 24.3182C79.9596 24.3361 79.7967 24.4927 79.5382 24.741C78.0687 26.1531 73.5122 30.5314 70.1606 29.2416C66.0515 27.6503 68.1771 22.357 68.9615 20.7657C69.6264 19.4246 70.3623 18.1172 70.3623 18.1172C70.3623 18.1172 69.731 18.2965 69.3351 18.3862C68.9391 18.4758 68.3452 18.5916 68.3452 18.5916C68.3452 18.5916 66.3952 21.7631 65.2036 23.3432C64.0119 24.9234 58.9428 30.3623 55.9581 29.279C52.9734 28.1957 53.7168 24.0194 55.3903 20.6873C58.1098 15.3081 64.5648 8.69616 68.4647 9.68981C72.3646 10.6835 69.1408 17.06 69.1408 17.06C69.1408 17.06 69.9216 17.1609 71.7931 15.8833C72.566 15.3574 73.4087 14.5768 74.3077 13.7441C76.5501 11.6671 79.1432 9.2653 81.879 9.67861C83.687 9.9513 85.3717 11.8079 83.0669 15.3305C82.3198 16.4511 81.0908 17.4747 80.142 16.4736C79.5518 15.8572 80.0673 14.7179 80.6874 13.9409C80.9298 13.6242 81.2464 13.3721 81.6092 13.2066C81.9721 13.0412 82.3701 12.9675 82.7681 12.992C82.7681 12.992 83.4031 11.5314 81.7856 11.5613C80.4745 11.5875 77.1573 14.6394 75.2858 17.725C73.5898 20.5677 70.9936 25.394 73.5899 26.4475C75.9843 27.415 80.5417 22.0059 82.6523 19.1706C84.7629 16.3353 89.5668 9.91021 93.6012 9.65246C94.9908 9.56281 95.8163 10.8292 95.8163 10.8292L96.2833 10.082H100.31C100.31 10.082 92.727 22.7792 92.1331 23.7317C91.6661 24.4788 91.046 26.171 92.7644 25.2259C94.4827 24.2808 98.0614 19.6787 98.0614 19.6787ZM88.928 22.2076C90.5567 19.9663 95.0468 12.159 95.0468 12.159C95.0276 12.0097 94.9579 11.8715 94.8491 11.7675C94.7403 11.6635 94.5991 11.5999 94.4491 11.5875C93.829 11.5576 92.798 11.7668 90.7136 14.3443C88.6291 16.9218 87.0752 18.9726 85.9171 21.1056C84.6396 23.4329 84.083 25.0765 84.8152 25.521C85.0532 25.6413 85.3273 25.6693 85.5847 25.5995C86.0628 25.48 86.6867 25.0018 87.5421 24.0156C87.9455 23.5561 88.4013 22.936 88.9355 22.2076H88.928ZM68.4087 11.636C67.3515 10.8366 64.6731 12.7044 64.647 14.6245C64.6208 16.5445 67.0751 17.1422 67.3926 17.1572C67.4634 17.1758 67.5385 17.1706 67.606 17.1422C67.6736 17.1138 67.7299 17.0639 67.7661 17.0003C68.0535 16.4374 68.3116 15.8602 68.5394 15.2707C68.9129 14.2995 69.3799 12.3943 68.3974 11.6472L68.4087 11.636ZM66.8024 18.3712C66.0735 18.1433 65.3768 17.8232 64.7291 17.4187C64.0974 17.0107 63.5825 16.4456 63.2349 15.7787C63.2024 15.7234 63.167 15.7645 63.1337 15.8032C63.1288 15.8089 63.1239 15.8146 63.1191 15.8198C63.0818 15.8609 62.8651 16.1448 61.4269 18.2554C59.9887 20.366 57.8557 24.6843 59.8543 25.4239C61.1318 25.8983 63.2798 23.6533 64.4415 22.1703C65.3169 21.0127 66.1263 19.8067 66.8659 18.558C66.9144 18.431 66.8659 18.4011 66.7949 18.3787L66.8024 18.3712Z" fill="white"/>
<path d="M95.8649 40C92.8941 37.9439 89.337 36.9059 85.7266 37.0415C84.7493 37.0678 83.7921 37.3244 82.9326 37.7905C82.0732 38.2566 81.336 38.9189 80.7808 39.7236C79.2417 37.0377 76.201 35.3903 71.4979 35.4277C67.516 35.4727 63.5495 36.4565 59.8172 37.3822C56.4277 38.2228 53.2314 39.0156 50.3921 39.0138C44.6618 39.0138 40.4892 35.4128 40.6274 29.0212C40.874 17.8146 50.3398 7.72866 57.4374 3.17877C61.5054 0.563887 64.9084 -0.205635 67.1498 0.0446464C68.7747 0.223952 70.7284 2.10293 69.4957 4.87097C67.684 8.92403 65.1812 8.5841 65.2745 6.64908C65.3135 6.1443 65.4716 5.65594 65.7359 5.22411C66.0002 4.79228 66.3631 4.42929 66.7949 4.16495C67.2531 3.91551 67.7674 3.78695 68.2891 3.79139C68.6627 3.48882 68.9204 1.27364 66.0067 2.00207C63.093 2.7305 59.5442 5.59566 56.1972 9.29385C52.8501 12.992 47.6428 19.9775 46.354 27.3141C45.7526 30.7172 46.1523 36.9219 54.1987 36.8547C57.3009 36.8292 61.0755 35.8881 65.1399 34.8747C70.0267 33.6562 75.3325 32.3333 80.3923 32.372C83.6195 32.3585 86.7892 33.2264 89.5593 34.8823C91.9575 36.3765 94.8301 38.5133 95.8499 39.9851L95.8649 40Z" fill="white"/>
<path d="M22.5552 25.4687H30.6314L30.3662 23.6308H24.6546V21.3895H28.5022V19.5218H24.6546V17.6166H30.2579L30.5268 15.7787H22.5589L22.5552 25.4687Z" fill="white"/>
<path d="M10.6015 25.4687H12.7008V21.1841H17.6467V25.465H19.7535V15.8086H17.6504V19.3088H12.7008V15.8049H10.6127L10.6015 25.4687Z" fill="white"/>
<path d="M0 17.6913H3.22004V25.4575H5.32688V17.6913H8.54692V15.8012H0V17.6913Z" fill="white"/>
<path d="M246.468 15.831H248.787L244.966 22.2412V25.4874H242.859V22.2823L239 15.8273H241.372L243.931 20.3473L246.468 15.831Z" fill="white"/>
<path d="M235.295 22.3682V15.831L237.345 15.8198V25.4762H235.227L230.539 18.8232V25.4762H228.488V15.8198H230.67L235.295 22.3682Z" fill="white"/>
<path fill-rule="evenodd" clip-rule="evenodd" d="M226.643 25.4799H224.428L223.625 23.3245H219.385L218.582 25.4687H216.382L220.225 15.8161H222.814L226.643 25.4799ZM221.518 17.6801L220.072 21.5091L222.952 21.5053L221.518 17.6801Z" fill="white"/>
<path fill-rule="evenodd" clip-rule="evenodd" d="M208.003 15.8124H212.967C213.613 15.7915 214.254 15.9274 214.835 16.2083C215.319 16.4481 215.72 16.8282 215.986 17.2991C216.241 17.7832 216.375 18.3224 216.375 18.8699C216.375 19.4174 216.241 19.9566 215.986 20.4407C215.719 20.9121 215.318 21.2942 214.835 21.5389C214.254 21.8212 213.613 21.9583 212.967 21.9386H210.11V25.465H208.003V15.8124ZM210.125 20.0746H212.93C213.284 20.0977 213.633 19.984 213.905 19.7571C214.13 19.5164 214.255 19.1993 214.255 18.8699C214.255 18.5405 214.13 18.2234 213.905 17.9827C213.628 17.7618 213.28 17.6514 212.926 17.6727H210.125V20.0746Z" fill="white"/>
<path d="M202.373 15.8124H205.201L205.205 25.4725H203.165V18.3749L200.199 25.323H198.791L195.859 18.5505V25.4575H193.819V15.8124H196.647L199.538 22.5363L202.373 15.8124Z" fill="white"/>
<path d="M186.364 23.7205L186.367 23.7205H186.363L186.364 23.7205Z" fill="white"/>
<path fill-rule="evenodd" clip-rule="evenodd" d="M189.026 24.9906C188.206 25.4228 187.29 25.6413 186.363 25.6256L186.352 25.6294C185.425 25.644 184.509 25.4257 183.688 24.9943C182.922 24.5849 182.287 23.9689 181.854 23.2162C181.418 22.4231 181.189 21.5326 181.189 20.6275C181.189 19.7223 181.418 18.8318 181.854 18.0387C182.288 17.2859 182.925 16.6699 183.692 16.2606C184.517 15.8419 185.43 15.6237 186.355 15.6237C187.281 15.6237 188.193 15.8419 189.019 16.2606C189.797 16.6654 190.444 17.2818 190.887 18.0387C191.321 18.8316 191.549 19.7213 191.549 20.6256C191.549 21.5299 191.321 22.4196 190.887 23.2125C190.446 23.9683 189.801 24.5847 189.026 24.9906ZM184.831 23.3245C185.297 23.592 185.827 23.7288 186.364 23.7205C186.902 23.7323 187.433 23.5953 187.898 23.3245C188.346 23.0661 188.713 22.6868 188.955 22.23C189.206 21.733 189.336 21.1841 189.336 20.6275C189.336 20.0708 189.206 19.522 188.955 19.0249C188.715 18.5645 188.348 18.1823 187.898 17.9229C187.429 17.6646 186.902 17.5291 186.367 17.5291C185.831 17.5291 185.304 17.6646 184.835 17.9229C184.387 18.1752 184.018 18.5479 183.77 18.9988C183.511 19.4922 183.382 20.044 183.397 20.6013C183.384 21.1584 183.513 21.7097 183.77 22.2039C184.012 22.6697 184.379 23.0581 184.831 23.3245Z" fill="white"/>
<path d="M178.421 25.2558C177.713 25.5111 176.966 25.6376 176.213 25.6294L176.225 25.6406C175.249 25.6579 174.283 25.4333 173.415 24.9868C172.616 24.5756 171.945 23.9518 171.476 23.1841C171.008 22.4163 170.76 21.5343 170.76 20.6349C170.76 19.7355 171.008 18.8536 171.476 18.0858C171.945 17.3181 172.616 16.6943 173.415 16.283C174.273 15.8413 175.226 15.618 176.191 15.6331C176.944 15.6196 177.692 15.7463 178.399 16.0066C179.038 16.2402 179.607 16.6322 180.053 17.1459L178.742 18.6028C178.408 18.2536 178.01 17.972 177.569 17.7735C177.151 17.598 176.701 17.509 176.247 17.512C175.664 17.5043 175.09 17.6458 174.577 17.9229C174.092 18.1841 173.687 18.5713 173.404 19.0436C173.108 19.5199 172.954 20.0705 172.96 20.6312C172.952 21.1839 173.098 21.7278 173.381 22.2027C173.663 22.6775 174.072 23.0645 174.562 23.3208C175.083 23.6003 175.667 23.7418 176.258 23.7317C176.73 23.7396 177.199 23.6498 177.635 23.4679C178.071 23.2859 178.464 23.0158 178.791 22.6745L180.106 24.109C179.652 24.6295 179.072 25.0245 178.421 25.2558Z" fill="white"/>
</svg>
